<svg xmlns="http://www.w3.org/2000/svg" viewBox="0 0 100 100" fill="none">
  <!-- Background Circle -->
  <circle cx="50" cy="50" r="48" fill="#0a0a0a" stroke="#ff3b00" stroke-width="2"/>
  
  <!-- Dumbbell Icon (centered and scaled) -->
  <g transform="translate(50, 50) scale(2.5)">
    <path d="M5.76 5.76 3.84 3.84" stroke="#ff3b00" stroke-width="1.2" stroke-linecap="round" stroke-linejoin="round"/>
    <path d="M-5.76 -5.76 -3.84 -3.84" stroke="#ff3b00" stroke-width="1.2" stroke-linecap="round" stroke-linejoin="round"/>
    <path d="M-1.76 -1.76 1.76 1.76" stroke="#ff3b00" stroke-width="1.2" stroke-linecap="round" stroke-linejoin="round"/>
    <path d="M2.563 5.828a0.8 0.8 0 1 1-1.131-1.131l-0.707 0.707a0.8 0.8 0 1 1-1.131-1.131l2.545-2.545a0.8 0.8 0 1 1 1.131 1.131l-0.707 0.707a0.8 0.8 0 1 1 1.131 1.131z" fill="#ff3b00"/>
    <path d="M-5.828 -2.563a0.8 0.8 0 1 1 1.131 1.131l0.707-0.707a0.8 0.8 0 1 1 1.131 1.131l-2.545 2.545a0.8 0.8 0 1 1-1.131-1.131l0.707-0.707a0.8 0.8 0 1 1-1.131-1.131z" fill="#ff3b00"/>
  </g>
</svg>

